<svg height="512pt" viewBox="-9 0 512 512.00126" width="512pt" xmlns="http://www.w3.org/2000/svg"><path d="m144.046875 56.457031-4.980469.644531c-7.691406 1-13.113281 8.042969-12.117187 15.730469l55.988281 431.386719h34.007812l-57.167968-435.644531c-1-7.691407-8.042969-13.113281-15.730469-12.117188zm0 0" fill="#996459"/><path d="m159.777344 68.574219c-1-7.691407-8.042969-13.113281-15.730469-12.117188l-4.980469.648438c-.433594.054687-.859375.136719-1.277344.230469 4.578126 1.824218 8.0625 6.003906 8.742188 11.238281l57.167969 435.644531h13.246093zm0 0" fill="#875850"/><path d="m291.332031 275.992188-243.441406 31.585937c-11.414063 1.484375-21.875-6.570313-23.355469-17.992187l-16.574218-127.6875c-1.484376-11.414063 6.578124-21.875 17.992187-23.355469l149.105469-19.355469 94.335937-12.246094c11.414063-1.480468 21.871094 6.582032 23.355469 17.996094l12.496094 96.253906 4.078125 31.429688c1.484375 11.425781-6.570313 21.886718-17.992188 23.371094zm0 0" fill="#f8a28b"/><path d="m305.246094 221.191406-120.371094-15.625c-.644531-.085937-1.285156-.199218-1.910156-.332031-.632813-.894531-.632813-2.117187.074218-3.019531l18.273438-23.472656c4.875-6.339844 3.695312-15.441407-2.644531-20.328126-6.339844-4.886718-15.441407-3.707031-20.328125 2.636719l-10.449219 13.425781 7.167969-55.289062 94.335937-12.242188c11.414063-1.484374 21.875 6.578126 23.359375 17.992188zm0 0" fill="#f58c79"/><path d="m212.644531 235.386719c0 3.15625-.996093 6.351562-3.074219 9.039062-4.738281 6.152344-13.570312 7.324219-19.753906 2.613281l-24.167968-18.417968c-1.101563-.839844-2.675782-.644532-3.527344.457031l-18.65625 23.980469c-2.78125 3.582031-6.953125 5.449218-11.15625 5.449218-3.007813 0-6.050782-.957031-8.613282-2.9375-6.507812-5.011718-7.699218-14.414062-2.65625-20.898437l18.003907-23.121094c.859375-1.109375.652343-2.71875-.464844-3.570312l-23.660156-18.035157c-6.339844-4.875-7.523438-13.976562-2.636719-20.324218 4.886719-6.34375 13.988281-7.523438 20.328125-2.636719l23.816406 18.148437c1.097657.839844 2.675781.640626 3.527344-.457031l7.9375-10.199219-1.007813 7.730469c-1.402343 10.78125 5.6875 20.691407 16.085938 23.023438.144531.207031.320312.394531.527344.550781l23.304687 17.765625c3.828125 2.917969 5.84375 7.347656 5.84375 11.839844zm0 0" fill="#fff"/><path d="m346.113281 7.910156 3.535157.460938c8.089843 1.050781 13.796874 8.457031 12.746093 16.546875l-62.203125 479.300781h-33.550781l62.925781-483.5625c1.050782-8.089844 8.457032-13.796875 16.546875-12.746094zm0 0" fill="#996459"/><path d="m349.648438 8.371094-3.535157-.460938c-3.007812-.390625-5.917969.15625-8.445312 1.410156 6.109375 2.441407 10.046875 8.769532 9.160156 15.597657l-62.203125 479.300781h15.566406l62.203125-479.300781c1.050781-8.089844-4.65625-15.5-12.746093-16.546875zm0 0" fill="#875850"/><path d="m201.3125 178.742188-18.273438 23.46875c-.707031.90625-.707031 2.128906-.074218 3.019531-10.398438-2.332031-17.484375-12.242188-16.082032-23.023438l1.003907-7.730469 10.449219-13.429687c4.886718-6.339844 13.988281-7.523437 20.328124-2.632813 6.339844 4.886719 7.523438 13.984376 2.648438 20.328126zm0 0" fill="#eff2fa"/><path d="m201.949219 191.84375 244.9375 31.789062c11.007812 1.425782 21.085937-6.335937 22.511719-17.339843l16.769531-129.191407c1.425781-11.003906-6.335938-21.085937-17.339844-22.511718l-244.9375-31.789063c-11.007813-1.429687-21.085937 6.335938-22.511719 17.339844l-16.769531 129.191406c-1.425781 11.003907 6.335937 21.082031 17.339844 22.511719zm0 0" fill="#ffd782"/><path d="m305.707031 165.230469c-3.457031-.398438-6.613281-2.152344-8.773437-4.875l-24.46875-30.832031c-4.5-5.675782-3.550782-13.921876 2.121094-18.425782 5.675781-4.5 13.921874-3.550781 18.425781 2.121094l16.316406 20.558594 57.03125-45.257813c5.671875-4.5 13.921875-3.550781 18.425781 2.121094 4.5 5.671875 3.550782 13.921875-2.121094 18.425781l-67.308593 53.410156c-2.722657 2.160157-6.195313 3.152344-9.648438 2.753907zm0 0" fill="#fff"/><path d="m488.078125 57.695312c-4.667969-6.058593-11.414063-9.9375-19-10.921874l-99.992187-12.976563 1.019531-7.871094c.78125-5.96875-.808594-11.886719-4.484375-16.660156-3.675782-4.777344-8.996094-7.835937-14.957032-8.605469l-3.554687-.472656c-5.972656-.769531-11.890625.828125-16.660156 4.503906-4.773438 3.679688-7.824219 8.996094-8.597657 14.960938l-1.027343 7.878906-95.183594-12.351562c-15.660156-2.03125-30.046875 9.050781-32.078125 24.710937l-9.117188 70.234375-11.179687 1.453125-5.773437-44.007813c-.75-5.78125-3.707032-10.921874-8.328126-14.480468-4.617187-3.550782-10.34375-5.09375-16.117187-4.347656l-4.984375.644531c-5.785156.75-10.925781 3.707031-14.480469 8.328125-3.554687 4.617187-5.097656 10.339844-4.347656 16.121094l3.113281 24.015624c.554688 4.265626 4.453125 7.273438 8.71875 6.71875 4.261719-.554687 7.269532-4.457031 6.71875-8.71875l-3.117187-24.015624c-.214844-1.660157.230469-3.304688 1.25-4.628907 1.015625-1.324219 2.488281-2.167969 4.140625-2.382812l4.984375-.644531c1.65625-.214844 3.300781.226562 4.628906 1.246093 1.324219 1.019531 2.167969 2.492188 2.382813 4.15625l5.773437 43.996094-132.875 17.246094c-7.582031.984375-14.328125 4.863281-18.996094 10.921875-4.671875 6.058594-6.699219 13.574218-5.710937 21.152344l16.570312 127.6875c.984375 7.589843 4.863282 14.335937 10.921875 19.003906 5.058594 3.894531 11.128907 5.949218 17.40625 5.949218 1.242188 0 2.496094-.082031 3.746094-.242187l99.996094-12.976563 25.191406 194.113282h-25.492187c-4.296876 0-7.78125 3.484375-7.78125 7.785156 0 4.296875 3.484374 7.78125 7.78125 7.78125h191.972656c4.296875 0 7.78125-3.484375 7.78125-7.78125 0-4.300781-3.484375-7.785156-7.78125-7.785156h-31.507813l2.503907-19.304688c.550781-4.261718-2.453126-8.164062-6.714844-8.71875-4.265625-.558594-8.167969 2.457032-8.71875 6.71875l-2.765625 21.308594h-17.851563l28.730469-220.808594 7.847656-60.238281c.007813-.0625.015625-.128906.023438-.195313l.152343-1.1875 17.453126 2.265626-29.917969 230.5625c-.554688 4.261718 2.453125 8.167968 6.714843 8.71875.339844.046874.675782.066406 1.011719.066406 3.851563 0 7.199219-2.859375 7.707031-6.78125l29.921876-230.5625 99.988281 12.976562c1.253906.164063 2.5.242188 3.742187.242188 6.28125 0 12.355469-2.058594 17.414063-5.953125 6.058593-4.667969 9.941406-11.414063 10.921875-19l16.574218-127.6875c.984376-7.585938-1.046874-15.101563-5.710937-21.160157zm-150.792969-36.035156c.242188-1.851562 1.1875-3.5 2.667969-4.640625 1.476563-1.136719 3.308594-1.636719 5.136719-1.394531l3.558594.46875c1.851562.238281 3.5 1.1875 4.640624 2.664062 1.132813 1.476563 1.625 3.304688 1.382813 5.15625l-1.019531 7.878907-17.390625-2.257813zm-181.308594 202.640625-18.660156 23.984375c-1.207031 1.550782-3.03125 2.441406-5.011718 2.441406-.980469 0-2.449219-.230468-3.863282-1.320312-1.492187-1.152344-2.445312-2.824219-2.6875-4.710938-.238281-1.890624.265625-3.753906 1.425782-5.242187l18.007812-23.128906c1.703125-2.195313 2.441406-4.917969 2.078125-7.671875s-1.777344-5.191406-3.972656-6.859375l-23.632813-18.011719c-1.417968-1.09375-2.324218-2.671875-2.554687-4.445312-.230469-1.78125.246093-3.542969 1.335937-4.964844 2.261719-2.933594 6.484375-3.480469 9.449219-1.195313l23.804687 18.140625c4.488282 3.433594 10.953126 2.589844 14.398438-1.859375l10.953125-14.074219c.691406 4.8125 2.605469 9.394532 5.65625 13.355469.15625.207031.324219.40625.492187.609375l-6.277343 8.058594c-1.714844 2.179688-2.464844 4.898438-2.121094 7.648438.34375 2.753906 1.75 5.203124 3.980469 6.917968l23.308594 17.765625c1.761718 1.34375 2.773437 3.402344 2.773437 5.648438 0 1.097656-.25 2.730469-1.453125 4.289062-2.125 2.757813-6.105469 3.285157-8.875 1.175781l-24.160156-18.414062c-4.488282-3.429688-10.953125-2.589844-14.394532 1.863281zm33.796876 272.132813-25.453126-196.113282 17.71875-2.300781 26.039063 198.414063zm70.035156 0h-36.03125l-26.300782-200.417969 65.988282-8.558594c4.261718-.554687 7.269531-4.457031 6.71875-8.722656-.554688-4.261719-4.457032-7.269531-8.71875-6.714844l-106.832032 13.859375c-.011718.003906-.023437.003906-.03125.003906-.011718 0-.023437.003907-.03125.007813l-107.683593 13.96875c-3.457031.457031-6.886719-.472656-9.652344-2.601563-2.761719-2.128906-4.535156-5.210937-4.984375-8.671874l-16.570312-127.691407c-.449219-3.457031.476562-6.882812 2.605468-9.648437 2.132813-2.765625 5.210938-4.539063 8.671875-4.988282l155.417969-20.167968-3.144531 24.214844c-2.726563 1.46875-5.136719 3.5-7.035157 5.964843l-15.191406 19.519531-19.644531-14.96875c-9.726563-7.5-23.742187-5.683593-31.25 4.050782-3.628906 4.71875-5.207031 10.566406-4.441406 16.464844.765625 5.902343 3.785156 11.152343 8.527343 14.800781l19.445313 14.820312-14.746094 18.9375c-3.722656 4.785157-5.347656 10.738281-4.582031 16.765625.769531 6.023438 3.832031 11.378906 8.621094 15.066406 3.804687 2.941407 8.554687 4.5625 13.371094 4.5625 6.820312 0 13.125-3.082031 17.296874-8.453124l15.464844-19.871094 20.03125 15.265625c9.558594 7.28125 23.300782 5.464843 30.632813-4.050781 3.027343-3.917969 4.695312-8.816407 4.695312-13.792969 0-7.144531-3.246093-13.71875-8.90625-18.03125l-19.085937-14.542969 3.511718-4.511719c1.847657.640625 3.773438 1.101563 5.753907 1.359375l94.496093 12.261719.320313 2.453125-7.714844 59.242188zm218.542968-419.582032-16.570312 127.6875c-.449219 3.460938-2.222656 6.542969-4.984375 8.671876-2.765625 2.128906-6.199219 3.054687-9.65625 2.605468l-140.515625-18.234375c-.023438-.003906-.046875-.011719-.074219-.015625-.027343-.003906-.050781-.003906-.078125-.003906l-102.769531-13.339844c-2.152344-.277344-4.15625-1.070312-5.875-2.292968-.003906 0-.003906 0-.003906-.003907-1.046875-.742187-1.988281-1.644531-2.792969-2.6875-2.128906-2.765625-3.054688-6.195312-2.605469-9.65625l1.617188-12.445312c.015625-.101563.023437-.210938.039062-.316407l14.914063-114.925781c.855468-6.578125 6.488281-11.386719 12.953125-11.386719.558593 0 1.121093.035157 1.691406.109376l102.785156 13.339843c.035157.003907.070313.011719.101563.015625.039062.007813.074218.003906.109375.011719l140.4375 18.226563c3.464843.449218 6.542969 2.21875 8.671875 4.984374 2.128906 2.765626 3.054687 6.195313 2.605468 9.65625zm0 0"/><path d="m376.898438 78.03125c-5.542969-.636719-11.003907.921875-15.378907 4.390625l-13.59375 10.789063c-.070312.054687-.136719.105468-.207031.164062l-37.132812 29.46875-11.480469-14.464844c-3.46875-4.371094-8.433594-7.128906-13.976563-7.769531-1.867187-.214844-3.714844-.15625-5.527344.113281-.109374.011719-.21875.027344-.328124.042969-.125.023437-.25.035156-.375.058594-.199219.035156-.394532.085937-.589844.136719-3.089844.667968-6.011719 2.019531-8.558594 4.042968-9.027344 7.160156-10.542969 20.332032-3.378906 29.355469l24.464844 30.832031c3.46875 4.371094 8.433593 7.132813 13.980468 7.769532.8125.09375 1.625.140624 2.429688.140624 4.691406 0 9.21875-1.570312 12.949218-4.53125l67.304688-53.410156c9.023438-7.160156 10.542969-20.332031 3.378906-29.359375-3.46875-4.371093-8.433594-7.128906-13.980468-7.769531zm.925781 24.9375-34.839844 27.648438c-.019531.015624-.039063.027343-.054687.042968l-32.410157 25.71875c-1.117187.882813-2.507812 1.28125-3.921875 1.121094-1.417968-.164062-2.683594-.867188-3.566406-1.984375l-24.46875-30.832031c-1.828125-2.304688-1.4375-5.664063.863281-7.492188 1.113281-.882812 2.503907-1.28125 3.921875-1.117187 1.417969.160156 2.683594.867187 3.570313 1.980469l16.3125 20.5625c1.285156 1.613281 3.15625 2.65625 5.207031 2.890624 2.050781.238282 4.113281-.351562 5.730469-1.632812l57.03125-45.257812c1.117187-.886719 2.507812-1.285157 3.925781-1.121094 1.414062.164062 2.679688.867187 3.5625 1.980468 1.828125 2.304688 1.441406 5.664063-.863281 7.492188zm0 0"/></svg>